# xmcd
#
# Track frame offsets:
#	150
#	15168
#	30665
#	44138
#	63858
#	75233
#	91213
#	104048
#	118756
#	130782
#	141504
#	158218
#
# Disc length: 2406 seconds
# Revision: 0
# Processed by: cddbd v1.5.2PL0 Copyright (c) Steve Scherf et al.
# Submitted via: dBpowerAMP V12.0
#
DISCID=9909640c
DTITLE=Alan Tompkins - No Part of Nothing
DYEAR=2012
DGENRE=Country
TTITLE0=I'm Blue, I'm Lonesome
TTITLE1=This World Is Not My Home
TTITLE2=Blue Kentucky Waltz
TTITLE3=Angelina Baker
TTITLE4=More Pretty Girls Than One
TTITLE5=When It Comes To You
TTITLE6=Count Me Out
TTITLE7=I've Been Redeemed
TTITLE8=Shenandoah Waltz
TTITLE9=Lonesome Road Blues
TTITLE10=Farther Along
TTITLE11=No Part Of Nothing Blues
EXTD=
EXTT0=
EXTT1=
EXTT2=
EXTT3=
EXTT4=
EXTT5=
EXTT6=
EXTT7=
EXTT8=
EXTT9=
EXTT10=
EXTT11=
PLAYORDER=
